<svg width="510" height="317" viewBox="0 0 510 317" fill="none" xmlns="http://www.w3.org/2000/svg">
<rect width="510" height="317" rx="15" fill="#00FFC2"/>
<rect x="7" y="8" width="497" height="299" rx="15" fill="#0F111B"/>
<path d="M36.2422 45.1602H44.3281V47H33.9805V29.9375H36.2422V45.1602ZM45.9805 40.543C45.9805 39.3008 46.2227 38.1836 46.707 37.1914C47.1992 36.1992 47.8789 35.4336 48.7461 34.8945C49.6211 34.3555 50.6172 34.0859 51.7344 34.0859C53.4609 34.0859 54.8555 34.6836 55.918 35.8789C56.9883 37.0742 57.5234 38.6641 57.5234 40.6484V40.8008C57.5234 42.0352 57.2852 43.1445 56.8086 44.1289C56.3398 45.1055 55.6641 45.8672 54.7812 46.4141C53.9062 46.9609 52.8984 47.2344 51.7578 47.2344C50.0391 47.2344 48.6445 46.6367 47.5742 45.4414C46.5117 44.2461 45.9805 42.6641 45.9805 40.6953V40.543ZM48.1602 40.8008C48.1602 42.207 48.4844 43.3359 49.1328 44.1875C49.7891 45.0391 50.6641 45.4648 51.7578 45.4648C52.8594 45.4648 53.7344 45.0352 54.3828 44.1758C55.0312 43.3086 55.3555 42.0977 55.3555 40.543C55.3555 39.1523 55.0234 38.0273 54.3594 37.168C53.7031 36.3008 52.8281 35.8672 51.7344 35.8672C50.6641 35.8672 49.8008 36.293 49.1445 37.1445C48.4883 37.9961 48.1602 39.2148 48.1602 40.8008ZM59.7266 40.5547C59.7266 38.5781 60.1836 37.0078 61.0977 35.8438C62.0117 34.6719 63.2227 34.0859 64.7305 34.0859C66.2773 34.0859 67.4844 34.6328 68.3516 35.7266L68.457 34.3203H70.4375V46.6953C70.4375 48.3359 69.9492 49.6289 68.9727 50.5742C68.0039 51.5195 66.6992 51.9922 65.0586 51.9922C64.1445 51.9922 63.25 51.7969 62.375 51.4062C61.5 51.0156 60.832 50.4805 60.3711 49.8008L61.4961 48.5C62.4258 49.6484 63.5625 50.2227 64.9062 50.2227C65.9609 50.2227 66.7812 49.9258 67.3672 49.332C67.9609 48.7383 68.2578 47.9023 68.2578 46.8242V45.7344C67.3906 46.7344 66.207 47.2344 64.707 47.2344C63.2227 47.2344 62.0195 46.6367 61.0977 45.4414C60.1836 44.2461 59.7266 42.6172 59.7266 40.5547ZM61.9062 40.8008C61.9062 42.2305 62.1992 43.3555 62.7852 44.1758C63.3711 44.9883 64.1914 45.3945 65.2461 45.3945C66.6133 45.3945 67.6172 44.7734 68.2578 43.5312V37.7422C67.5938 36.5312 66.5977 35.9258 65.2695 35.9258C64.2148 35.9258 63.3906 36.3359 62.7969 37.1562C62.2031 37.9766 61.9062 39.1914 61.9062 40.8008ZM76.0742 47H73.9062V34.3203H76.0742V47ZM73.7305 30.957C73.7305 30.6055 73.8359 30.3086 74.0469 30.0664C74.2656 29.8242 74.5859 29.7031 75.0078 29.7031C75.4297 29.7031 75.75 29.8242 75.9688 30.0664C76.1875 30.3086 76.2969 30.6055 76.2969 30.957C76.2969 31.3086 76.1875 31.6016 75.9688 31.8359C75.75 32.0703 75.4297 32.1875 75.0078 32.1875C74.5859 32.1875 74.2656 32.0703 74.0469 31.8359C73.8359 31.6016 73.7305 31.3086 73.7305 30.957ZM81.6055 34.3203L81.6758 35.9141C82.6445 34.6953 83.9102 34.0859 85.4727 34.0859C88.1523 34.0859 89.5039 35.5977 89.5273 38.6211V47H87.3594V38.6094C87.3516 37.6953 87.1406 37.0195 86.7266 36.582C86.3203 36.1445 85.6836 35.9258 84.8164 35.9258C84.1133 35.9258 83.4961 36.1133 82.9648 36.4883C82.4336 36.8633 82.0195 37.3555 81.7227 37.9648V47H79.5547V34.3203H81.6055Z" fill="#00FFC2"/>
<rect width="405" height="48" transform="translate(53 89)" fill="white"/>
<path d="M69.504 120.144C67.328 120.144 65.632 119.52 64.416 118.272C63.2 117.024 62.592 115.208 62.592 112.824V103.2H64.368V112.752C64.368 114.704 64.808 116.16 65.688 117.12C66.568 118.08 67.84 118.56 69.504 118.56C71.184 118.56 72.464 118.08 73.344 117.12C74.224 116.16 74.664 114.704 74.664 112.752V103.2H76.392V112.824C76.392 115.208 75.784 117.024 74.568 118.272C73.368 119.52 71.68 120.144 69.504 120.144ZM84.7678 120.12C83.7438 120.12 82.7598 119.976 81.8158 119.688C80.8878 119.384 80.1598 119.008 79.6318 118.56L80.3998 117.216C80.9278 117.632 81.5918 117.976 82.3918 118.248C83.1918 118.504 84.0238 118.632 84.8878 118.632C86.0398 118.632 86.8878 118.456 87.4318 118.104C87.9918 117.736 88.2718 117.224 88.2718 116.568C88.2718 116.104 88.1198 115.744 87.8158 115.488C87.5118 115.216 87.1278 115.016 86.6638 114.888C86.1998 114.744 85.5838 114.608 84.8158 114.48C83.7918 114.288 82.9678 114.096 82.3438 113.904C81.7198 113.696 81.1838 113.352 80.7358 112.872C80.3038 112.392 80.0878 111.728 80.0878 110.88C80.0878 109.824 80.5278 108.96 81.4078 108.288C82.2878 107.616 83.5118 107.28 85.0798 107.28C85.8958 107.28 86.7118 107.392 87.5278 107.616C88.3438 107.824 89.0158 108.104 89.5438 108.456L88.7998 109.824C87.7598 109.104 86.5198 108.744 85.0798 108.744C83.9918 108.744 83.1678 108.936 82.6078 109.32C82.0638 109.704 81.7918 110.208 81.7918 110.832C81.7918 111.312 81.9438 111.696 82.2478 111.984C82.5678 112.272 82.9598 112.488 83.4238 112.632C83.8878 112.76 84.5278 112.896 85.3438 113.04C86.3518 113.232 87.1598 113.424 87.7678 113.616C88.3758 113.808 88.8958 114.136 89.3278 114.6C89.7598 115.064 89.9758 115.704 89.9758 116.52C89.9758 117.624 89.5118 118.504 88.5838 119.16C87.6718 119.8 86.3998 120.12 84.7678 120.12ZM104.118 114.216H93.558C93.654 115.528 94.158 116.592 95.07 117.408C95.982 118.208 97.134 118.608 98.526 118.608C99.31 118.608 100.03 118.472 100.686 118.2C101.342 117.912 101.91 117.496 102.39 116.952L103.35 118.056C102.79 118.728 102.086 119.24 101.238 119.592C100.406 119.944 99.486 120.12 98.478 120.12C97.182 120.12 96.03 119.848 95.022 119.304C94.03 118.744 93.254 117.976 92.694 117C92.134 116.024 91.854 114.92 91.854 113.688C91.854 112.456 92.118 111.352 92.646 110.376C93.19 109.4 93.926 108.64 94.854 108.096C95.798 107.552 96.854 107.28 98.022 107.28C99.19 107.28 100.238 107.552 101.166 108.096C102.094 108.64 102.822 109.4 103.35 110.376C103.878 111.336 104.142 112.44 104.142 113.688L104.118 114.216ZM98.022 108.744C96.806 108.744 95.782 109.136 94.95 109.92C94.134 110.688 93.67 111.696 93.558 112.944H102.51C102.398 111.696 101.926 110.688 101.094 109.92C100.278 109.136 99.254 108.744 98.022 108.744ZM109.242 109.848C109.642 109 110.234 108.36 111.018 107.928C111.818 107.496 112.802 107.28 113.97 107.28V108.936L113.562 108.912C112.234 108.912 111.194 109.32 110.442 110.136C109.69 110.952 109.314 112.096 109.314 113.568V120H107.61V107.376H109.242V109.848ZM123.488 107.28C125.072 107.28 126.328 107.744 127.256 108.672C128.2 109.584 128.672 110.92 128.672 112.68V120H126.968V112.848C126.968 111.536 126.64 110.536 125.984 109.848C125.328 109.16 124.392 108.816 123.176 108.816C121.816 108.816 120.736 109.224 119.936 110.04C119.152 110.84 118.76 111.952 118.76 113.376V120H117.056V107.376H118.688V109.704C119.152 108.936 119.792 108.344 120.608 107.928C121.44 107.496 122.4 107.28 123.488 107.28ZM137.714 107.28C139.362 107.28 140.626 107.696 141.506 108.528C142.386 109.344 142.826 110.56 142.826 112.176V120H141.194V118.032C140.81 118.688 140.242 119.2 139.49 119.568C138.754 119.936 137.874 120.12 136.85 120.12C135.442 120.12 134.322 119.784 133.49 119.112C132.658 118.44 132.242 117.552 132.242 116.448C132.242 115.376 132.626 114.512 133.394 113.856C134.178 113.2 135.418 112.872 137.114 112.872H141.122V112.104C141.122 111.016 140.818 110.192 140.21 109.632C139.602 109.056 138.714 108.768 137.546 108.768C136.746 108.768 135.978 108.904 135.242 109.176C134.506 109.432 133.874 109.792 133.346 110.256L132.578 108.984C133.218 108.44 133.986 108.024 134.882 107.736C135.778 107.432 136.722 107.28 137.714 107.28ZM137.114 118.776C138.074 118.776 138.898 118.56 139.586 118.128C140.274 117.68 140.786 117.04 141.122 116.208V114.144H137.162C135.002 114.144 133.922 114.896 133.922 116.4C133.922 117.136 134.202 117.72 134.762 118.152C135.322 118.568 136.106 118.776 137.114 118.776ZM163.198 107.28C164.782 107.28 166.022 107.736 166.918 108.648C167.83 109.56 168.286 110.904 168.286 112.68V120H166.582V112.848C166.582 111.536 166.262 110.536 165.622 109.848C164.998 109.16 164.11 108.816 162.958 108.816C161.646 108.816 160.614 109.224 159.862 110.04C159.11 110.84 158.734 111.952 158.734 113.376V120H157.03V112.848C157.03 111.536 156.71 110.536 156.07 109.848C155.446 109.16 154.55 108.816 153.382 108.816C152.086 108.816 151.054 109.224 150.286 110.04C149.534 110.84 149.158 111.952 149.158 113.376V120H147.454V107.376H149.086V109.68C149.534 108.912 150.158 108.32 150.958 107.904C151.758 107.488 152.678 107.28 153.718 107.28C154.774 107.28 155.686 107.504 156.454 107.952C157.238 108.4 157.822 109.064 158.206 109.944C158.67 109.112 159.334 108.464 160.198 108C161.078 107.52 162.078 107.28 163.198 107.28ZM183.946 114.216H173.386C173.482 115.528 173.986 116.592 174.898 117.408C175.81 118.208 176.962 118.608 178.354 118.608C179.138 118.608 179.858 118.472 180.514 118.2C181.17 117.912 181.738 117.496 182.218 116.952L183.178 118.056C182.618 118.728 181.914 119.24 181.066 119.592C180.234 119.944 179.314 120.12 178.306 120.12C177.01 120.12 175.858 119.848 174.85 119.304C173.858 118.744 173.082 117.976 172.522 117C171.962 116.024 171.682 114.92 171.682 113.688C171.682 112.456 171.946 111.352 172.474 110.376C173.018 109.4 173.754 108.64 174.682 108.096C175.626 107.552 176.682 107.28 177.85 107.28C179.018 107.28 180.066 107.552 180.994 108.096C181.922 108.64 182.65 109.4 183.178 110.376C183.706 111.336 183.97 112.44 183.97 113.688L183.946 114.216ZM177.85 108.744C176.634 108.744 175.61 109.136 174.778 109.92C173.962 110.688 173.498 111.696 173.386 112.944H182.338C182.226 111.696 181.754 110.688 180.922 109.92C180.106 109.136 179.082 108.744 177.85 108.744Z" fill="black" fill-opacity="0.63"/>
<rect x="53" y="200" width="405" height="48" fill="white"/>
<path d="M214.958 234.288C213.246 234.288 211.694 233.92 210.302 233.184C208.926 232.432 207.838 231.4 207.038 230.088C206.254 228.76 205.862 227.264 205.862 225.6C205.862 223.936 206.254 222.448 207.038 221.136C207.838 219.808 208.926 218.776 210.302 218.04C211.694 217.288 213.254 216.912 214.982 216.912C216.438 216.912 217.75 217.168 218.918 217.68C220.102 218.192 221.094 218.928 221.894 219.888L219.398 222.192C218.262 220.88 216.854 220.224 215.174 220.224C214.134 220.224 213.206 220.456 212.39 220.92C211.574 221.368 210.934 222 210.47 222.816C210.022 223.632 209.798 224.56 209.798 225.6C209.798 226.64 210.022 227.568 210.47 228.384C210.934 229.2 211.574 229.84 212.39 230.304C213.206 230.752 214.134 230.976 215.174 230.976C216.854 230.976 218.262 230.312 219.398 228.984L221.894 231.288C221.094 232.264 220.102 233.008 218.918 233.52C217.734 234.032 216.414 234.288 214.958 234.288ZM229.954 234.192C228.594 234.192 227.37 233.912 226.282 233.352C225.21 232.776 224.37 231.984 223.762 230.976C223.154 229.968 222.85 228.824 222.85 227.544C222.85 226.264 223.154 225.12 223.762 224.112C224.37 223.104 225.21 222.32 226.282 221.76C227.37 221.184 228.594 220.896 229.954 220.896C231.314 220.896 232.53 221.184 233.602 221.76C234.674 222.32 235.514 223.104 236.122 224.112C236.73 225.12 237.034 226.264 237.034 227.544C237.034 228.824 236.73 229.968 236.122 230.976C235.514 231.984 234.674 232.776 233.602 233.352C232.53 233.912 231.314 234.192 229.954 234.192ZM229.954 231.12C230.914 231.12 231.698 230.8 232.306 230.16C232.93 229.504 233.242 228.632 233.242 227.544C233.242 226.456 232.93 225.592 232.306 224.952C231.698 224.296 230.914 223.968 229.954 223.968C228.994 223.968 228.202 224.296 227.578 224.952C226.954 225.592 226.642 226.456 226.642 227.544C226.642 228.632 226.954 229.504 227.578 230.16C228.202 230.8 228.994 231.12 229.954 231.12ZM247.385 220.896C248.985 220.896 250.273 221.376 251.249 222.336C252.241 223.296 252.737 224.72 252.737 226.608V234H248.993V227.184C248.993 226.16 248.769 225.4 248.321 224.904C247.873 224.392 247.225 224.136 246.377 224.136C245.433 224.136 244.681 224.432 244.121 225.024C243.561 225.6 243.281 226.464 243.281 227.616V234H239.537V221.088H243.113V222.6C243.609 222.056 244.225 221.64 244.961 221.352C245.697 221.048 246.505 220.896 247.385 220.896ZM263.978 220.896C265.578 220.896 266.866 221.376 267.842 222.336C268.834 223.296 269.33 224.72 269.33 226.608V234H265.586V227.184C265.586 226.16 265.362 225.4 264.914 224.904C264.466 224.392 263.818 224.136 262.97 224.136C262.026 224.136 261.274 224.432 260.714 225.024C260.154 225.6 259.874 226.464 259.874 227.616V234H256.13V221.088H259.706V222.6C260.202 222.056 260.818 221.64 261.554 221.352C262.29 221.048 263.098 220.896 263.978 220.896ZM285.513 227.592C285.513 227.64 285.489 227.976 285.441 228.6H275.673C275.849 229.4 276.265 230.032 276.921 230.496C277.577 230.96 278.393 231.192 279.369 231.192C280.041 231.192 280.633 231.096 281.145 230.904C281.673 230.696 282.161 230.376 282.609 229.944L284.601 232.104C283.385 233.496 281.609 234.192 279.273 234.192C277.817 234.192 276.529 233.912 275.409 233.352C274.289 232.776 273.425 231.984 272.817 230.976C272.209 229.968 271.905 228.824 271.905 227.544C271.905 226.28 272.201 225.144 272.793 224.136C273.401 223.112 274.225 222.32 275.265 221.76C276.321 221.184 277.497 220.896 278.793 220.896C280.057 220.896 281.201 221.168 282.225 221.712C283.249 222.256 284.049 223.04 284.625 224.064C285.217 225.072 285.513 226.248 285.513 227.592ZM278.817 223.728C277.969 223.728 277.257 223.968 276.681 224.448C276.105 224.928 275.753 225.584 275.625 226.416H281.985C281.857 225.6 281.505 224.952 280.929 224.472C280.353 223.976 279.649 223.728 278.817 223.728ZM294.245 234.192C292.869 234.192 291.629 233.912 290.525 233.352C289.437 232.776 288.581 231.984 287.957 230.976C287.349 229.968 287.045 228.824 287.045 227.544C287.045 226.264 287.349 225.12 287.957 224.112C288.581 223.104 289.437 222.32 290.525 221.76C291.629 221.184 292.869 220.896 294.245 220.896C295.605 220.896 296.789 221.184 297.797 221.76C298.821 222.32 299.565 223.128 300.029 224.184L297.125 225.744C296.453 224.56 295.485 223.968 294.221 223.968C293.245 223.968 292.437 224.288 291.797 224.928C291.157 225.568 290.837 226.44 290.837 227.544C290.837 228.648 291.157 229.52 291.797 230.16C292.437 230.8 293.245 231.12 294.221 231.12C295.501 231.12 296.469 230.528 297.125 229.344L300.029 230.928C299.565 231.952 298.821 232.752 297.797 233.328C296.789 233.904 295.605 234.192 294.245 234.192ZM310.701 233.376C310.333 233.648 309.877 233.856 309.333 234C308.805 234.128 308.245 234.192 307.653 234.192C306.117 234.192 304.925 233.8 304.077 233.016C303.245 232.232 302.829 231.08 302.829 229.56V224.256H300.837V221.376H302.829V218.232H306.573V221.376H309.789V224.256H306.573V229.512C306.573 230.056 306.709 230.48 306.981 230.784C307.269 231.072 307.669 231.216 308.181 231.216C308.773 231.216 309.277 231.056 309.693 230.736L310.701 233.376Z" fill="black"/>
</svg>
