<svg width="1123" height="644" viewBox="0 0 1123 644" fill="none" xmlns="http://www.w3.org/2000/svg">
<rect width="1123" height="644" fill="black"/>
<rect width="1123" height="644" fill="black"/>
<rect x="286" y="144" width="510" height="317" rx="15" fill="#00FFC2"/>
<rect x="293" y="152" width="497" height="299" rx="15" fill="#0F111B"/>
<path d="M322.242 189.16H330.328V191H319.98V173.938H322.242V189.16ZM331.98 184.543C331.98 183.301 332.223 182.184 332.707 181.191C333.199 180.199 333.879 179.434 334.746 178.895C335.621 178.355 336.617 178.086 337.734 178.086C339.461 178.086 340.855 178.684 341.918 179.879C342.988 181.074 343.523 182.664 343.523 184.648V184.801C343.523 186.035 343.285 187.145 342.809 188.129C342.34 189.105 341.664 189.867 340.781 190.414C339.906 190.961 338.898 191.234 337.758 191.234C336.039 191.234 334.645 190.637 333.574 189.441C332.512 188.246 331.98 186.664 331.98 184.695V184.543ZM334.16 184.801C334.16 186.207 334.484 187.336 335.133 188.188C335.789 189.039 336.664 189.465 337.758 189.465C338.859 189.465 339.734 189.035 340.383 188.176C341.031 187.309 341.355 186.098 341.355 184.543C341.355 183.152 341.023 182.027 340.359 181.168C339.703 180.301 338.828 179.867 337.734 179.867C336.664 179.867 335.801 180.293 335.145 181.145C334.488 181.996 334.16 183.215 334.16 184.801ZM345.727 184.555C345.727 182.578 346.184 181.008 347.098 179.844C348.012 178.672 349.223 178.086 350.73 178.086C352.277 178.086 353.484 178.633 354.352 179.727L354.457 178.32H356.438V190.695C356.438 192.336 355.949 193.629 354.973 194.574C354.004 195.52 352.699 195.992 351.059 195.992C350.145 195.992 349.25 195.797 348.375 195.406C347.5 195.016 346.832 194.48 346.371 193.801L347.496 192.5C348.426 193.648 349.562 194.223 350.906 194.223C351.961 194.223 352.781 193.926 353.367 193.332C353.961 192.738 354.258 191.902 354.258 190.824V189.734C353.391 190.734 352.207 191.234 350.707 191.234C349.223 191.234 348.02 190.637 347.098 189.441C346.184 188.246 345.727 186.617 345.727 184.555ZM347.906 184.801C347.906 186.23 348.199 187.355 348.785 188.176C349.371 188.988 350.191 189.395 351.246 189.395C352.613 189.395 353.617 188.773 354.258 187.531V181.742C353.594 180.531 352.598 179.926 351.27 179.926C350.215 179.926 349.391 180.336 348.797 181.156C348.203 181.977 347.906 183.191 347.906 184.801ZM362.074 191H359.906V178.32H362.074V191ZM359.73 174.957C359.73 174.605 359.836 174.309 360.047 174.066C360.266 173.824 360.586 173.703 361.008 173.703C361.43 173.703 361.75 173.824 361.969 174.066C362.188 174.309 362.297 174.605 362.297 174.957C362.297 175.309 362.188 175.602 361.969 175.836C361.75 176.07 361.43 176.188 361.008 176.188C360.586 176.188 360.266 176.07 360.047 175.836C359.836 175.602 359.73 175.309 359.73 174.957ZM367.605 178.32L367.676 179.914C368.645 178.695 369.91 178.086 371.473 178.086C374.152 178.086 375.504 179.598 375.527 182.621V191H373.359V182.609C373.352 181.695 373.141 181.02 372.727 180.582C372.32 180.145 371.684 179.926 370.816 179.926C370.113 179.926 369.496 180.113 368.965 180.488C368.434 180.863 368.02 181.355 367.723 181.965V191H365.555V178.32H367.605Z" fill="#00FFC2"/>
<rect width="405" height="48" transform="translate(339 233)" fill="white"/>
<path d="M355.504 264.144C353.328 264.144 351.632 263.52 350.416 262.272C349.2 261.024 348.592 259.208 348.592 256.824V247.2H350.368V256.752C350.368 258.704 350.808 260.16 351.688 261.12C352.568 262.08 353.84 262.56 355.504 262.56C357.184 262.56 358.464 262.08 359.344 261.12C360.224 260.16 360.664 258.704 360.664 256.752V247.2H362.392V256.824C362.392 259.208 361.784 261.024 360.568 262.272C359.368 263.52 357.68 264.144 355.504 264.144ZM370.768 264.12C369.744 264.12 368.76 263.976 367.816 263.688C366.888 263.384 366.16 263.008 365.632 262.56L366.4 261.216C366.928 261.632 367.592 261.976 368.392 262.248C369.192 262.504 370.024 262.632 370.888 262.632C372.04 262.632 372.888 262.456 373.432 262.104C373.992 261.736 374.272 261.224 374.272 260.568C374.272 260.104 374.12 259.744 373.816 259.488C373.512 259.216 373.128 259.016 372.664 258.888C372.2 258.744 371.584 258.608 370.816 258.48C369.792 258.288 368.968 258.096 368.344 257.904C367.72 257.696 367.184 257.352 366.736 256.872C366.304 256.392 366.088 255.728 366.088 254.88C366.088 253.824 366.528 252.96 367.408 252.288C368.288 251.616 369.512 251.28 371.08 251.28C371.896 251.28 372.712 251.392 373.528 251.616C374.344 251.824 375.016 252.104 375.544 252.456L374.8 253.824C373.76 253.104 372.52 252.744 371.08 252.744C369.992 252.744 369.168 252.936 368.608 253.32C368.064 253.704 367.792 254.208 367.792 254.832C367.792 255.312 367.944 255.696 368.248 255.984C368.568 256.272 368.96 256.488 369.424 256.632C369.888 256.76 370.528 256.896 371.344 257.04C372.352 257.232 373.16 257.424 373.768 257.616C374.376 257.808 374.896 258.136 375.328 258.6C375.76 259.064 375.976 259.704 375.976 260.52C375.976 261.624 375.512 262.504 374.584 263.16C373.672 263.8 372.4 264.12 370.768 264.12ZM390.118 258.216H379.558C379.654 259.528 380.158 260.592 381.07 261.408C381.982 262.208 383.134 262.608 384.526 262.608C385.31 262.608 386.03 262.472 386.686 262.2C387.342 261.912 387.91 261.496 388.39 260.952L389.35 262.056C388.79 262.728 388.086 263.24 387.238 263.592C386.406 263.944 385.486 264.12 384.478 264.12C383.182 264.12 382.03 263.848 381.022 263.304C380.03 262.744 379.254 261.976 378.694 261C378.134 260.024 377.854 258.92 377.854 257.688C377.854 256.456 378.118 255.352 378.646 254.376C379.19 253.4 379.926 252.64 380.854 252.096C381.798 251.552 382.854 251.28 384.022 251.28C385.19 251.28 386.238 251.552 387.166 252.096C388.094 252.64 388.822 253.4 389.35 254.376C389.878 255.336 390.142 256.44 390.142 257.688L390.118 258.216ZM384.022 252.744C382.806 252.744 381.782 253.136 380.95 253.92C380.134 254.688 379.67 255.696 379.558 256.944H388.51C388.398 255.696 387.926 254.688 387.094 253.92C386.278 253.136 385.254 252.744 384.022 252.744ZM395.242 253.848C395.642 253 396.234 252.36 397.018 251.928C397.818 251.496 398.802 251.28 399.97 251.28V252.936L399.562 252.912C398.234 252.912 397.194 253.32 396.442 254.136C395.69 254.952 395.314 256.096 395.314 257.568V264H393.61V251.376H395.242V253.848ZM409.488 251.28C411.072 251.28 412.328 251.744 413.256 252.672C414.2 253.584 414.672 254.92 414.672 256.68V264H412.968V256.848C412.968 255.536 412.64 254.536 411.984 253.848C411.328 253.16 410.392 252.816 409.176 252.816C407.816 252.816 406.736 253.224 405.936 254.04C405.152 254.84 404.76 255.952 404.76 257.376V264H403.056V251.376H404.688V253.704C405.152 252.936 405.792 252.344 406.608 251.928C407.44 251.496 408.4 251.28 409.488 251.28ZM423.714 251.28C425.362 251.28 426.626 251.696 427.506 252.528C428.386 253.344 428.826 254.56 428.826 256.176V264H427.194V262.032C426.81 262.688 426.242 263.2 425.49 263.568C424.754 263.936 423.874 264.12 422.85 264.12C421.442 264.12 420.322 263.784 419.49 263.112C418.658 262.44 418.242 261.552 418.242 260.448C418.242 259.376 418.626 258.512 419.394 257.856C420.178 257.2 421.418 256.872 423.114 256.872H427.122V256.104C427.122 255.016 426.818 254.192 426.21 253.632C425.602 253.056 424.714 252.768 423.546 252.768C422.746 252.768 421.978 252.904 421.242 253.176C420.506 253.432 419.874 253.792 419.346 254.256L418.578 252.984C419.218 252.44 419.986 252.024 420.882 251.736C421.778 251.432 422.722 251.28 423.714 251.28ZM423.114 262.776C424.074 262.776 424.898 262.56 425.586 262.128C426.274 261.68 426.786 261.04 427.122 260.208V258.144H423.162C421.002 258.144 419.922 258.896 419.922 260.4C419.922 261.136 420.202 261.72 420.762 262.152C421.322 262.568 422.106 262.776 423.114 262.776ZM449.198 251.28C450.782 251.28 452.022 251.736 452.918 252.648C453.83 253.56 454.286 254.904 454.286 256.68V264H452.582V256.848C452.582 255.536 452.262 254.536 451.622 253.848C450.998 253.16 450.11 252.816 448.958 252.816C447.646 252.816 446.614 253.224 445.862 254.04C445.11 254.84 444.734 255.952 444.734 257.376V264H443.03V256.848C443.03 255.536 442.71 254.536 442.07 253.848C441.446 253.16 440.55 252.816 439.382 252.816C438.086 252.816 437.054 253.224 436.286 254.04C435.534 254.84 435.158 255.952 435.158 257.376V264H433.454V251.376H435.086V253.68C435.534 252.912 436.158 252.32 436.958 251.904C437.758 251.488 438.678 251.28 439.718 251.28C440.774 251.28 441.686 251.504 442.454 251.952C443.238 252.4 443.822 253.064 444.206 253.944C444.67 253.112 445.334 252.464 446.198 252C447.078 251.52 448.078 251.28 449.198 251.28ZM469.946 258.216H459.386C459.482 259.528 459.986 260.592 460.898 261.408C461.81 262.208 462.962 262.608 464.354 262.608C465.138 262.608 465.858 262.472 466.514 262.2C467.17 261.912 467.738 261.496 468.218 260.952L469.178 262.056C468.618 262.728 467.914 263.24 467.066 263.592C466.234 263.944 465.314 264.12 464.306 264.12C463.01 264.12 461.858 263.848 460.85 263.304C459.858 262.744 459.082 261.976 458.522 261C457.962 260.024 457.682 258.92 457.682 257.688C457.682 256.456 457.946 255.352 458.474 254.376C459.018 253.4 459.754 252.64 460.682 252.096C461.626 251.552 462.682 251.28 463.85 251.28C465.018 251.28 466.066 251.552 466.994 252.096C467.922 252.64 468.65 253.4 469.178 254.376C469.706 255.336 469.97 256.44 469.97 257.688L469.946 258.216ZM463.85 252.744C462.634 252.744 461.61 253.136 460.778 253.92C459.962 254.688 459.498 255.696 459.386 256.944H468.338C468.226 255.696 467.754 254.688 466.922 253.92C466.106 253.136 465.082 252.744 463.85 252.744Z" fill="black" fill-opacity="0.63"/>
<rect x="339" y="344" width="405" height="48" fill="white"/>
<path d="M500.958 378.288C499.246 378.288 497.694 377.92 496.302 377.184C494.926 376.432 493.838 375.4 493.038 374.088C492.254 372.76 491.862 371.264 491.862 369.6C491.862 367.936 492.254 366.448 493.038 365.136C493.838 363.808 494.926 362.776 496.302 362.04C497.694 361.288 499.254 360.912 500.982 360.912C502.438 360.912 503.75 361.168 504.918 361.68C506.102 362.192 507.094 362.928 507.894 363.888L505.398 366.192C504.262 364.88 502.854 364.224 501.174 364.224C500.134 364.224 499.206 364.456 498.39 364.92C497.574 365.368 496.934 366 496.47 366.816C496.022 367.632 495.798 368.56 495.798 369.6C495.798 370.64 496.022 371.568 496.47 372.384C496.934 373.2 497.574 373.84 498.39 374.304C499.206 374.752 500.134 374.976 501.174 374.976C502.854 374.976 504.262 374.312 505.398 372.984L507.894 375.288C507.094 376.264 506.102 377.008 504.918 377.52C503.734 378.032 502.414 378.288 500.958 378.288ZM515.954 378.192C514.594 378.192 513.37 377.912 512.282 377.352C511.21 376.776 510.37 375.984 509.762 374.976C509.154 373.968 508.85 372.824 508.85 371.544C508.85 370.264 509.154 369.12 509.762 368.112C510.37 367.104 511.21 366.32 512.282 365.76C513.37 365.184 514.594 364.896 515.954 364.896C517.314 364.896 518.53 365.184 519.602 365.76C520.674 366.32 521.514 367.104 522.122 368.112C522.73 369.12 523.034 370.264 523.034 371.544C523.034 372.824 522.73 373.968 522.122 374.976C521.514 375.984 520.674 376.776 519.602 377.352C518.53 377.912 517.314 378.192 515.954 378.192ZM515.954 375.12C516.914 375.12 517.698 374.8 518.306 374.16C518.93 373.504 519.242 372.632 519.242 371.544C519.242 370.456 518.93 369.592 518.306 368.952C517.698 368.296 516.914 367.968 515.954 367.968C514.994 367.968 514.202 368.296 513.578 368.952C512.954 369.592 512.642 370.456 512.642 371.544C512.642 372.632 512.954 373.504 513.578 374.16C514.202 374.8 514.994 375.12 515.954 375.12ZM533.385 364.896C534.985 364.896 536.273 365.376 537.249 366.336C538.241 367.296 538.737 368.72 538.737 370.608V378H534.993V371.184C534.993 370.16 534.769 369.4 534.321 368.904C533.873 368.392 533.225 368.136 532.377 368.136C531.433 368.136 530.681 368.432 530.121 369.024C529.561 369.6 529.281 370.464 529.281 371.616V378H525.537V365.088H529.113V366.6C529.609 366.056 530.225 365.64 530.961 365.352C531.697 365.048 532.505 364.896 533.385 364.896ZM549.978 364.896C551.578 364.896 552.866 365.376 553.842 366.336C554.834 367.296 555.33 368.72 555.33 370.608V378H551.586V371.184C551.586 370.16 551.362 369.4 550.914 368.904C550.466 368.392 549.818 368.136 548.97 368.136C548.026 368.136 547.274 368.432 546.714 369.024C546.154 369.6 545.874 370.464 545.874 371.616V378H542.13V365.088H545.706V366.6C546.202 366.056 546.818 365.64 547.554 365.352C548.29 365.048 549.098 364.896 549.978 364.896ZM571.513 371.592C571.513 371.64 571.489 371.976 571.441 372.6H561.673C561.849 373.4 562.265 374.032 562.921 374.496C563.577 374.96 564.393 375.192 565.369 375.192C566.041 375.192 566.633 375.096 567.145 374.904C567.673 374.696 568.161 374.376 568.609 373.944L570.601 376.104C569.385 377.496 567.609 378.192 565.273 378.192C563.817 378.192 562.529 377.912 561.409 377.352C560.289 376.776 559.425 375.984 558.817 374.976C558.209 373.968 557.905 372.824 557.905 371.544C557.905 370.28 558.201 369.144 558.793 368.136C559.401 367.112 560.225 366.32 561.265 365.76C562.321 365.184 563.497 364.896 564.793 364.896C566.057 364.896 567.201 365.168 568.225 365.712C569.249 366.256 570.049 367.04 570.625 368.064C571.217 369.072 571.513 370.248 571.513 371.592ZM564.817 367.728C563.969 367.728 563.257 367.968 562.681 368.448C562.105 368.928 561.753 369.584 561.625 370.416H567.985C567.857 369.6 567.505 368.952 566.929 368.472C566.353 367.976 565.649 367.728 564.817 367.728ZM580.245 378.192C578.869 378.192 577.629 377.912 576.525 377.352C575.437 376.776 574.581 375.984 573.957 374.976C573.349 373.968 573.045 372.824 573.045 371.544C573.045 370.264 573.349 369.12 573.957 368.112C574.581 367.104 575.437 366.32 576.525 365.76C577.629 365.184 578.869 364.896 580.245 364.896C581.605 364.896 582.789 365.184 583.797 365.76C584.821 366.32 585.565 367.128 586.029 368.184L583.125 369.744C582.453 368.56 581.485 367.968 580.221 367.968C579.245 367.968 578.437 368.288 577.797 368.928C577.157 369.568 576.837 370.44 576.837 371.544C576.837 372.648 577.157 373.52 577.797 374.16C578.437 374.8 579.245 375.12 580.221 375.12C581.501 375.12 582.469 374.528 583.125 373.344L586.029 374.928C585.565 375.952 584.821 376.752 583.797 377.328C582.789 377.904 581.605 378.192 580.245 378.192ZM596.701 377.376C596.333 377.648 595.877 377.856 595.333 378C594.805 378.128 594.245 378.192 593.653 378.192C592.117 378.192 590.925 377.8 590.077 377.016C589.245 376.232 588.829 375.08 588.829 373.56V368.256H586.837V365.376H588.829V362.232H592.573V365.376H595.789V368.256H592.573V373.512C592.573 374.056 592.709 374.48 592.981 374.784C593.269 375.072 593.669 375.216 594.181 375.216C594.773 375.216 595.277 375.056 595.693 374.736L596.701 377.376Z" fill="black"/>
</svg>
